<?xml version="1.0" encoding="UTF-8"?>
<svg viewBox="0 0 800 400" xmlns="http://www.w3.org/2000/svg">
  <!-- White Background -->
  <rect width="800" height="400" fill="white"/>
  
  <!-- Cell Body (Soma) -->
  <ellipse cx="350" cy="200" rx="80" ry="70" fill="#FFC0CB" stroke="#FF69B4" stroke-width="2"/>
  
  <!-- Nucleus -->
  <circle cx="350" cy="200" r="30" fill="#FFB6C1" stroke="#FF1493" stroke-width="1.5"/>
  
  <!-- Dendrites -->
  <path d="M 280 170 C 250 160, 230 190, 200 180 C 170 170, 150 150, 120 160" fill="none" stroke="#FF69B4" stroke-width="2"/>
  <path d="M 290 150 C 270 120, 240 130, 220 100 C 200 70, 180 60, 150 50" fill="none" stroke="#FF69B4" stroke-width="2"/>
  <path d="M 300 140 C 290 110, 300 80, 280 60 C 260 40, 240 30, 210 20" fill="none" stroke="#FF69B4" stroke-width="2"/>
  <path d="M 320 140 C 330 110, 350 90, 340 60 C 330 30, 310 20, 290 10" fill="none" stroke="#FF69B4" stroke-width="2"/>
  <path d="M 280 180 C 260 190, 240 180, 220 200 C 200 220, 180 230, 150 230" fill="none" stroke="#FF69B4" stroke-width="2"/>
  <path d="M 290 210 C 270 230, 250 240, 230 250 C 210 260, 190 270, 160 260" fill="none" stroke="#FF69B4" stroke-width="2"/>
  
  <!-- Axon -->
  <path d="M 430 200 C 460 200, 480 200, 500 200 C 550 200, 570 200, 600 200" fill="none" stroke="#FF69B4" stroke-width="3"/>
  
  <!-- Myelin Sheath -->
  <rect x="500" y="190" width="30" height="20" fill="#FFAEB9" stroke="#FF1493" stroke-width="1.5" rx="10" ry="10"/>
  <rect x="540" y="190" width="30" height="20" fill="#FFAEB9" stroke="#FF1493" stroke-width="1.5" rx="10" ry="10"/>
  <rect x="580" y="190" width="30" height="20" fill="#FFAEB9" stroke="#FF1493" stroke-width="1.5" rx="10" ry="10"/>
  <rect x="620" y="190" width="30" height="20" fill="#FFAEB9" stroke="#FF1493" stroke-width="1.5" rx="10" ry="10"/>
  
  <!-- Axon Terminals -->
  <path d="M 660 200 C 680 200, 690 190, 700 180 C 710 170, 720 160, 730 150" fill="none" stroke="#FF69B4" stroke-width="2"/>
  <circle cx="730" cy="150" r="10" fill="#FF8DA1" stroke="#FF1493" stroke-width="1.5"/>
  
  <path d="M 660 200 C 680 200, 690 210, 700 215 C 710 220, 720 225, 730 230" fill="none" stroke="#FF69B4" stroke-width="2"/>
  <circle cx="730" cy="230" r="10" fill="#FF8DA1" stroke="#FF1493" stroke-width="1.5"/>
  
  <path d="M 660 200 C 680 200, 690 200, 700 200 C 710 200, 720 200, 730 200" fill="none" stroke="#FF69B4" stroke-width="2"/>
  <circle cx="730" cy="200" r="10" fill="#FF8DA1" stroke="#FF1493" stroke-width="1.5"/>
</svg>
